<?xml version="1.0" encoding="UTF-8"?>
<svg version="1.1" xmlns="http://www.w3.org/2000/svg" width="100" height="138">
<path d="M0 0 C0.2475 1.155 0.495 2.31 0.75 3.5 C1.69235311 7.75047382 2.74129927 11.96774975 3.8125 16.1875 C5.45889062 22.68596011 6.97024039 29.20892113 8.4375 35.75 C10.64022795 45.55981332 13.02534619 55.31633585 15.50683594 65.05908203 C16.0096875 67.03812656 16.50593014 69.01874671 17 71 C20.79564513 70.62043549 23.69255836 70.15372082 27.125 68.4375 C30.08781574 66.95609213 31.74800359 66.71305914 35 67 C35.33 68.32 35.66 69.64 36 71 C36.66 71 37.32 71 38 71 C39.65625 73.01171875 39.65625 73.01171875 41.5 75.6875 C42.1084375 76.55761719 42.716875 77.42773438 43.34375 78.32421875 C47.99791948 85.84333689 48.17672817 93.64243264 48.125 102.25 C48.12016602 103.09046875 48.11533203 103.9309375 48.11035156 104.796875 C48.01150741 115.04503663 47.77942538 124.65539934 43 134 C38.91980402 136.72013065 35.7114615 136.60956914 31 136 C15.70043955 132.26677392 -6.65723738 125.34276262 -18 114 C-18.07900779 111.15571941 -17.52844292 109.56473707 -15.578125 107.48046875 C-11.94584291 104.30623993 -8.06932986 101.58055064 -4 99 C-7.33215859 95.57668814 -10.64313055 92.23899145 -14.375 89.25 C-19.28426466 85.13683231 -23.0321658 79.99131293 -27 75 C-28.01659123 73.80886642 -29.03645693 72.6205015 -30.0625 71.4375 C-32 69 -32 69 -32 67 C-32.66 67 -33.32 67 -34 67 C-38 61.58823529 -38 61.58823529 -38 59 C-38.99 58.67 -39.98 58.34 -41 58 C-42.97265625 55.8203125 -42.97265625 55.8203125 -45.0625 53.125 C-45.75472656 52.24070313 -46.44695313 51.35640625 -47.16015625 50.4453125 C-48.49548026 48.67055066 -49.76800727 46.8479891 -51 45 C-50.2421875 42.72265625 -50.2421875 42.72265625 -48.875 40.0625 C-46.82542967 35.98487714 -45.63582614 32.38601173 -44.6875 27.9375 C-42.12711095 19.82610355 -34.996197 17.00128246 -27.98291016 13.14501953 C-25.19728848 11.53647907 -22.67702338 9.64076539 -20.125 7.6875 C-7.06969441 -1.98600956 -7.06969441 -1.98600956 0 0 Z " fill="#2E2E2E" transform="translate(51,2)"/>
<path d="M0 0 C0 1.65 0 3.3 0 5 C0.66 5 1.32 5 2 5 C2.33 4.01 2.66 3.02 3 2 C4 3 4 3 4.09765625 5.72265625 C4.08605469 6.82480469 4.07445312 7.92695312 4.0625 9.0625 C4.05347656 10.16722656 4.04445312 11.27195312 4.03515625 12.41015625 C4.02355469 13.26480469 4.01195312 14.11945312 4 15 C4.99 14.67 5.98 14.34 7 14 C7.495 18.95 7.495 18.95 8 24 C8.99 24.33 9.98 24.66 11 25 C11 27.64 11 30.28 11 33 C11.99 33.33 12.98 33.66 14 34 C14.495 38.95 14.495 38.95 15 44 C15.66 44 16.32 44 17 44 C17.12375 44.639375 17.2475 45.27875 17.375 45.9375 C17.58125 46.618125 17.7875 47.29875 18 48 C18.99 48.495 18.99 48.495 20 49 C20.4140625 51.06640625 20.4140625 51.06640625 20.625 53.5625 C20.69976562 54.38878906 20.77453125 55.21507812 20.8515625 56.06640625 C20.90054688 56.70449219 20.94953125 57.34257813 21 58 C21.99 57.67 22.98 57.34 24 57 C25.5 58.375 25.5 58.375 27 60 C27 60.66 27 61.32 27 62 C28.72990025 61.06385433 30.45888696 60.12602042 32.1875 59.1875 C33.15042969 58.66542969 34.11335938 58.14335938 35.10546875 57.60546875 C38.01215134 56.05812762 38.01215134 56.05812762 40.61328125 54.17578125 C43 53 43 53 45.20703125 53.57421875 C49.17357495 56.72844195 49.72324804 62.05741412 50.40625 66.8515625 C51.51055733 78.96826794 52.48960911 92.22256924 49 104 C43.27675241 104.24138003 38.70796628 103.64189233 33.3125 101.625 C32.60206543 101.36678467 31.89163086 101.10856934 31.15966797 100.8425293 C24.8445791 98.46911405 18.72498289 95.68821373 12.625 92.8125 C11.71532471 92.38469238 10.80564941 91.95688477 9.8684082 91.51611328 C9.01722412 91.10474121 8.16604004 90.69336914 7.2890625 90.26953125 C6.53318848 89.90448486 5.77731445 89.53943848 4.99853516 89.16333008 C2.97711113 87.98667659 1.56533018 86.72570983 0 85 C4.7296807 80.87668862 9.73369981 77.40554079 15 74 C14.47472655 70.01148297 12.70140299 68.53802357 9.6875 66 C0.8283004 58.27984035 -7.31474219 50.1493079 -14.6328125 40.94140625 C-17.96637294 36.79920986 -21.44675802 32.78846739 -24.92773438 28.77001953 C-27.39203726 25.91545354 -29.78958662 23.05999404 -32 20 C-30.92685547 19.41605469 -30.92685547 19.41605469 -29.83203125 18.8203125 C-23.27169253 15.13701754 -17.32509198 11.15515546 -11.4543457 6.46533203 C-3.34382902 0 -3.34382902 0 0 0 Z " fill="#FAFAFA" transform="translate(38,28)"/>
<path d="M0 0 C0.66 0.33 1.32 0.66 2 1 C1.47599609 1.85271484 1.47599609 1.85271484 0.94140625 2.72265625 C0.48636719 3.49480469 0.03132813 4.26695313 -0.4375 5.0625 C-0.88996094 5.81660156 -1.34242187 6.57070312 -1.80859375 7.34765625 C-3.19864242 10.06421921 -3.19864242 10.06421921 -3.34765625 13.578125 C-4 17 -4 17 -6.125 19.01171875 C-7.07375 19.56472656 -8.0225 20.11773438 -9 20.6875 C-10.06992187 21.34105469 -11.13984375 21.99460937 -12.2421875 22.66796875 C-12.83612305 23.02810059 -13.43005859 23.38823242 -14.04199219 23.75927734 C-18.63370735 26.66889037 -22.98689689 29.95019836 -27.38671875 33.1394043 C-28.08667969 33.63996338 -28.78664063 34.14052246 -29.5078125 34.65625 C-30.13316895 35.10806641 -30.75852539 35.55988281 -31.40283203 36.02539062 C-33 37 -33 37 -35 37 C-34.31910995 34.86448121 -33.61561642 32.74335063 -32.87109375 30.62890625 C-31.96373783 28.05143499 -31.96373783 28.05143499 -31.47265625 25.52734375 C-29.46394736 18.02737152 -24.72860992 15.3393907 -18.36645508 11.6315918 C-16.93807092 10.81664806 -15.50732463 10.00583026 -14.07421875 9.19921875 C-10.95107861 7.39356145 -7.98854656 5.39582672 -5 3.375 C-4.030625 2.72273437 -3.06125 2.07046875 -2.0625 1.3984375 C-1.381875 0.93695313 -0.70125 0.47546875 0 0 Z " fill="#F2F2F2" transform="translate(41,7)"/>
<path d="M0 0 C1.65 0.33 3.3 0.66 5 1 C5.2475 2.155 5.495 3.31 5.75 4.5 C6.75146593 9.02090336 7.86794558 13.51042256 9 18 C13.30006677 35.14869801 13.30006677 35.14869801 13 41 C11.515 40.505 11.515 40.505 10 40 C9.7834375 41.546875 9.7834375 41.546875 9.5625 43.125 C9.08339543 46.42549813 8.56124917 49.71268341 8 53 C7.34 52.67 6.68 52.34 6 52 C5.5859375 49.93359375 5.5859375 49.93359375 5.375 47.4375 C5.30023438 46.61121094 5.22546875 45.78492188 5.1484375 44.93359375 C5.09945312 44.29550781 5.05046875 43.65742187 5 43 C4.34 43 3.68 43 3 43 C3.33 38.05 3.66 33.1 4 28 C3.01 30.475 3.01 30.475 2 33 C1.34 33 0.68 33 0 33 C0.81997534 20.8729963 0.81997534 20.8729963 3 16 C3.66 15.67 4.32 15.34 5 15 C3.03385733 15.14657084 3.03385733 15.14657084 1 16 C-0.1375213 18.08034294 -0.1375213 18.08034294 -0.75 20.5625 C-0.99234375 21.38878906 -1.2346875 22.21507813 -1.484375 23.06640625 C-1.65453125 23.70449219 -1.8246875 24.34257812 -2 25 C-4 23 -4 23 -4.046875 21.01171875 C-3.49168446 16.66516124 -2.69273021 13.0625525 -1 9 C-0.83201738 6.29113059 -0.83201738 6.29113059 -1 4 C-0.01 4.33 0.98 4.66 2 5 C3.1875 8.0625 3.1875 8.0625 4 11 C3.67 7.7 3.34 4.4 3 1 C2.01 0.67 1.02 0.34 0 0 Z " fill="#464646" transform="translate(46,1)"/>
<path d="M0 0 C0.99 0.33 1.98 0.66 3 1 C2.35534798 5.33304076 0.81074878 8.86672065 -1.0625 12.8125 C-1.61035156 13.97394531 -2.15820312 15.13539062 -2.72265625 16.33203125 C-3.14417969 17.21246094 -3.56570312 18.09289062 -4 19 C-3.45585449 18.62713867 -2.91170898 18.25427734 -2.35107422 17.87011719 C0.14068632 16.16302545 2.63283994 14.45650843 5.125 12.75 C5.9809375 12.16347656 6.836875 11.57695313 7.71875 10.97265625 C12.12793855 7.95405793 16.5449614 4.95055016 21 2 C21.66 2.33 22.32 2.66 23 3 C20.48222235 8.54535326 15.9555327 11.29691146 11.125 14.6875 C9.92037109 15.55858398 9.92037109 15.55858398 8.69140625 16.44726562 C4.87288989 19.16803717 1.42332934 21.37139735 -3 23 C-3 23.66 -3 24.32 -3 25 C-4.9375 24.6875 -4.9375 24.6875 -7 24 C-9.11399781 17.65800657 -5.71403192 10.7981591 -3 5 C-2.01 5 -1.02 5 0 5 C0 3.35 0 1.7 0 0 Z " fill="#1D1D1D" transform="translate(10,25)"/>
<path d="M0 0 C2 1 2 1 2 1 Z M-2 1 C-1.34 1.33 -0.68 1.66 0 2 C-2.41046894 7.15214735 -5.90352071 9.21013348 -10.625 12 C-11.34123535 12.43352783 -12.0574707 12.86705566 -12.79541016 13.3137207 C-14.85642961 14.55504301 -16.92680678 15.77915434 -19 17 C-19.98484375 17.59167969 -20.9696875 18.18335937 -21.984375 18.79296875 C-26.33005618 21.32794944 -26.33005618 21.32794944 -28 22 C-28.66 21.67 -29.32 21.34 -30 21 C-30 22.65 -30 24.3 -30 26 C-30.66 26 -31.32 26 -32 26 C-31.61655798 23.20635096 -31.32336817 21.43773277 -30 19 C-28.19287109 17.75366211 -28.19287109 17.75366211 -25.9609375 16.65234375 C-21.01541297 14.06746322 -16.57655827 11.01838647 -12.0625 7.75 C-10.57503118 6.68116013 -9.08678778 5.61339713 -7.59765625 4.546875 C-6.95320557 4.08120117 -6.30875488 3.61552734 -5.64477539 3.13574219 C-4 2 -4 2 -2 1 Z " fill="#3B3B3B" transform="translate(40,4)"/>
<path d="M0 0 C1.98 0 3.96 0 6 0 C6.66 3.3 7.32 6.6 8 10 C7.01 10.495 7.01 10.495 6 11 C5.34 8.69 4.68 6.38 4 4 C3.34 5.32 2.68 6.64 2 8 C1.34 8 0.68 8 0 8 C-0.99 8.495 -0.99 8.495 -2 9 C-2 8.01 -2 7.02 -2 6 C-2.99 6.33 -3.98 6.66 -5 7 C-4.34 5.68 -3.68 4.36 -3 3 C-2.34 3 -1.68 3 -1 3 C-0.67 2.01 -0.34 1.02 0 0 Z " fill="#1D1D1D" transform="translate(43,2)"/>
<path d="M0 0 C0.99 0.33 1.98 0.66 3 1 C4.71598971 7.57796056 2.96527163 12.0065888 0 18 C-0.66 18.99 -1.32 19.98 -2 21 C-3.72780986 17.54438027 -2.64597727 13.71436931 -2 10 C-1.3530635 8.3255761 -0.69040574 6.65697379 0 5 C0.16798262 2.29113059 0.16798262 2.29113059 0 0 Z " fill="#DADADA" transform="translate(45,5)"/>
<path d="M0 0 C0.99 0.33 1.98 0.66 3 1 C2.37183502 4.94949704 1.1354471 8.19892028 -0.5625 11.8125 C-1.01753906 12.78832031 -1.47257813 13.76414062 -1.94140625 14.76953125 C-2.46541016 15.87361328 -2.46541016 15.87361328 -3 17 C-3.99 16.67 -4.98 16.34 -6 16 C-5.32829194 12.1936543 -4.27253436 8.64793184 -3 5 C-2.01 5 -1.02 5 0 5 C0 3.35 0 1.7 0 0 Z " fill="#262626" transform="translate(10,25)"/>
<path d="M0 0 C2.475 0.495 2.475 0.495 5 1 C6.73955334 7.43013467 7.24991456 13.34949576 7 20 C6.34 20 5.68 20 5 20 C5 18.35 5 16.7 5 15 C4.01 15 3.02 15 2 15 C2 14.01 2 13.02 2 12 C2.66 11.67 3.32 11.34 4 11 C3.67 7.7 3.34 4.4 3 1 C2.01 0.67 1.02 0.34 0 0 Z " fill="#666666" transform="translate(46,1)"/>
<path d="M0 0 C0.66 0.33 1.32 0.66 2 1 C0.61469871 4.42717768 -0.67477227 5.7293493 -4 7.3125 C-4.70125 7.65925781 -5.4025 8.00601562 -6.125 8.36328125 C-7.053125 8.67845703 -7.053125 8.67845703 -8 9 C-8.66 8.67 -9.32 8.34 -10 8 C-10 9.65 -10 11.3 -10 13 C-10.66 13 -11.32 13 -12 13 C-11.61351051 10.18414801 -11.3477942 8.44731053 -10 6 C-7.17730863 3.92757789 -4.15556561 2.49441659 -1 1 C-0.67 0.67 -0.34 0.34 0 0 Z " fill="#434343" transform="translate(20,17)"/>
<path d="M0 0 C0.66 0.33 1.32 0.66 2 1 C1.52013969 6.56890517 0.70084819 11.67067568 -1 17 C-1.66 17 -2.32 17 -3 17 C-2.22095672 5.47835991 -2.22095672 5.47835991 0 0 Z " fill="#D5D5D5" transform="translate(49,17)"/>
<path d="M0 0 C0.33 1.32 0.66 2.64 1 4 C2.32 3.67 3.64 3.34 5 3 C4.42655063 5.86724686 4.1385485 6.8614515 2 9 C1.01 9.33 0.02 9.66 -1 10 C-2.1875 8.375 -2.1875 8.375 -3 6 C-1.625 2.75 -1.625 2.75 0 0 Z " fill="#0D0D0D" transform="translate(5,40)"/>
<path d="M0 0 C0.33 0.66 0.66 1.32 1 2 C1.99 2 2.98 2 4 2 C3.71125 2.680625 3.4225 3.36125 3.125 4.0625 C1.87402645 7.32893093 0.92552045 10.62846123 0 14 C-1.32 13.34 -2.64 12.68 -4 12 C-2.68 8.04 -1.36 4.08 0 0 Z " fill="#2E2E2E" transform="translate(47,14)"/>
<path d="M0 0 C1.33332095 2.6666419 0.67102033 4.16680303 0 7 C0.928125 7.4125 1.85625 7.825 2.8125 8.25 C5.88054681 9.93441786 7.19040465 11.08454083 9 14 C7.68 14 6.36 14 5 14 C4.67 13.01 4.34 12.02 4 11 C3.071875 10.7834375 3.071875 10.7834375 2.125 10.5625 C-0.7073715 9.8127546 -1.44987517 8.40269349 -3 6 C-2.01 4.02 -1.02 2.04 0 0 Z " fill="#575757" transform="translate(3,41)"/>
<path d="M0 0 C0.66 0 1.32 0 2 0 C2.22577402 5.4185766 1.46670113 9.77487721 0 15 C-0.66 15 -1.32 15 -2 15 C-1.03644647 4.44191344 -1.03644647 4.44191344 0 0 Z " fill="#C2C2C2" transform="translate(51,29)"/>
<path d="M0 0 C0.33 0 0.66 0 1 0 C1.08333357 4.8333472 0.95261487 9.23692563 0 14 C-0.66 13.67 -1.32 13.34 -2 13 C-1.85966889 11.02043559 -1.7125877 9.04134859 -1.5625 7.0625 C-1.48128906 5.96035156 -1.40007813 4.85820313 -1.31640625 3.72265625 C-1 1 -1 1 0 0 Z " fill="#C4C4C4" transform="translate(54,40)"/>
<path d="M0 0 C0.99 0 1.98 0 3 0 C3.66 3.3 4.32 6.6 5 10 C4.01 10.495 4.01 10.495 3 11 C2.87882812 10.36191406 2.75765625 9.72382813 2.6328125 9.06640625 C2.46523438 8.24011719 2.29765625 7.41382813 2.125 6.5625 C1.96257813 5.73878906 1.80015625 4.91507812 1.6328125 4.06640625 C1.42398438 3.38449219 1.21515625 2.70257812 1 2 C0.34 1.67 -0.32 1.34 -1 1 C-0.67 0.67 -0.34 0.34 0 0 Z " fill="#141414" transform="translate(46,2)"/>
<path d="M0 0 C0.66 0.66 1.32 1.32 2 2 C1.9765625 4.1640625 1.9765625 4.1640625 1.625 6.625 C1.51414062 7.44226562 1.40328125 8.25953125 1.2890625 9.1015625 C1.19367187 9.72804688 1.09828125 10.35453125 1 11 C-0.32 10.34 -1.64 9.68 -3 9 C-3 8.34 -3 7.68 -3 7 C-2.34 7 -1.68 7 -1 7 C-0.67 4.69 -0.34 2.38 0 0 Z " fill="#2D2D2D" transform="translate(49,27)"/>
<path d="M0 0 C-0.75 2.9375 -0.75 2.9375 -2 6 C-4.125 6.875 -4.125 6.875 -6 7 C-5.39816251 4.97954558 -4.72693904 2.97888961 -4 1 C-2 0 -2 0 0 0 Z " fill="#333333" transform="translate(48,102)"/>
<path d="M0 0 C2 1 2 1 2 1 Z M-2 1 C-1.34 1.33 -0.68 1.66 0 2 C-1.485 4.475 -1.485 4.475 -3 7 C-4.65 6.67 -6.3 6.34 -8 6 C-4.25 2.125 -4.25 2.125 -2 1 Z " fill="#535353" transform="translate(40,4)"/>
<path d="M0 0 C0.33 0 0.66 0 1 0 C2.28571429 7.42857143 2.28571429 7.42857143 1 11 C0.34 11 -0.32 11 -1 11 C-0.67 7.37 -0.34 3.74 0 0 Z " fill="#C4C4C4" transform="translate(47,23)"/>
<path d="M0 0 C0.66 0 1.32 0 2 0 C2.33 1.98 2.66 3.96 3 6 C2.34 6 1.68 6 1 6 C0.67 6.99 0.34 7.98 0 9 C0 6.03 0 3.06 0 0 Z " fill="#D5D5D5" transform="translate(56,53)"/>
<path d="M0 0 C0.99 0 1.98 0 3 0 C2.67 1.98 2.34 3.96 2 6 C1.01 5.67 0.02 5.34 -1 5 C-0.67 3.35 -0.34 1.7 0 0 Z " fill="#464646" transform="translate(5,36)"/>
<path d="M0 0 C1.65 0.33 3.3 0.66 5 1 C4.01 1.66 3.02 2.32 2 3 C1.34 2.67 0.68 2.34 0 2 C0 3.65 0 5.3 0 7 C-0.66 7 -1.32 7 -2 7 C-1.34 4.69 -0.68 2.38 0 0 Z " fill="#767676" transform="translate(10,23)"/>
</svg>
