<?xml version="1.0" encoding="UTF-8"?>
<svg version="1.1" xmlns="http://www.w3.org/2000/svg" width="474" height="669">
<path d="M0 0 C156.42 0 312.84 0 474 0 C474 220.77 474 441.54 474 669 C317.58 669 161.16 669 0 669 C0 448.23 0 227.46 0 0 Z " fill="#FDFDFD" transform="translate(0,0)"/>
<path d="M0 0 C0.495 0.99 0.495 0.99 1 2 C0.20829221 4.26684429 -0.64620835 6.42966794 -1.58984375 8.6328125 C-4.89525303 16.6143152 -7.77931146 24.69906248 -10.5625 32.875 C-10.921091 33.92365738 -10.921091 33.92365738 -11.28692627 34.99349976 C-14.79274756 45.25502902 -18.19065268 55.52224175 -21 66 C-21.20286621 66.75490723 -21.40573242 67.50981445 -21.61474609 68.28759766 C-22.69485197 72.32678603 -23.75756889 76.37010856 -24.8046875 80.41796875 C-25.55732737 83.3233532 -26.33022663 86.22130152 -27.1328125 89.11328125 C-28.92929604 95.62719748 -30.41556053 102.01509209 -31.41113281 108.69677734 C-32.0500792 112.28091693 -32.938495 115.73878544 -33.87109375 119.2578125 C-36.13197959 128.07296606 -37.67640607 136.94840539 -39.0625 145.9375 C-39.1897345 146.75636688 -39.31696899 147.57523376 -39.44805908 148.41891479 C-43.05013554 171.78566079 -45.24841946 194.90869449 -45.3125 218.5625 C-45.31626648 219.32410431 -45.32003296 220.08570862 -45.32391357 220.87039185 C-45.35050975 231.39890194 -44.52515729 241.58647985 -43 252 C-42.88503174 252.85311768 -42.77006348 253.70623535 -42.65161133 254.58520508 C-40.08620298 273.38319722 -35.552897 291.50602893 -26 308 C-25.4225 309.01449219 -24.845 310.02898437 -24.25 311.07421875 C-13.79790024 328.421801 2.48247529 342.93655566 22 349 C23.19367188 349.37253906 24.38734375 349.74507813 25.6171875 350.12890625 C36.57831648 353.12953944 47.46614824 353.37678507 58.75 353.375 C59.49031464 353.37681274 60.23062927 353.37862549 60.99337769 353.38049316 C75.25495571 353.37654658 88.97066143 351.64360643 102.9375 348.6875 C103.97181152 348.4694873 105.00612305 348.25147461 106.07177734 348.02685547 C113.8279074 346.34662234 121.3057088 344.26434914 128.82714844 341.71972656 C131.35685415 340.88179707 133.8993379 340.091785 136.4453125 339.3046875 C137.88559814 338.85681885 137.88559814 338.85681885 139.35498047 338.39990234 C141.21505347 337.82170795 143.07598886 337.24627663 144.93798828 336.67431641 C158.46832217 332.41777896 171.30957539 326.24491037 184.22753906 320.43579102 C196.89397421 314.7453769 209.27453962 310.07683027 222.9375 307.3125 C223.97712891 307.09827393 225.01675781 306.88404785 226.08789062 306.66333008 C233.39139972 305.20525132 240.53985066 304.16027665 248 304 C245.32171551 306.11567059 242.72481723 307.73357912 239.6328125 309.171875 C238.76237305 309.58123291 237.89193359 309.99059082 236.99511719 310.41235352 C236.04797852 310.85377686 235.10083984 311.2952002 234.125 311.75 C224.61011311 316.24416447 215.16026963 320.85433081 205.75 325.5625 C205.10580109 325.88460449 204.46160217 326.20670898 203.79788208 326.53857422 C196.17253577 330.35549665 188.58636255 334.23591325 181.0625 338.25 C157.95131792 350.55168804 133.82301725 362.03928899 108.57421875 369.2265625 C107.07776542 369.67617974 105.58637305 370.14522141 104.11206055 370.6628418 C97.97544126 372.80815282 91.80329213 374.26540619 85.4375 375.5625 C84.37756836 375.77865967 83.31763672 375.99481934 82.22558594 376.2175293 C49.36573497 382.78001397 13.84798059 382.44121234 -15.16845703 363.59130859 C-19.59107867 360.57583971 -23.92734661 357.47579902 -28 354 C-28 353.34 -28 352.68 -28 352 C-28.66 352 -29.32 352 -30 352 C-57.40107028 326.93424821 -67.75823192 283.47144148 -70 248 C-70.34879367 239.71154684 -70.37857265 231.41958691 -70.375 223.125 C-70.37672211 222.09733521 -70.37844421 221.06967041 -70.38021851 220.01086426 C-70.37790709 207.82557018 -69.78993925 196.05433897 -68 184 C-67.78943928 182.18979709 -67.58666693 180.37865741 -67.39453125 178.56640625 C-64.40076779 152.14194128 -58.19339518 126.27028163 -50 101 C-49.68450195 100.01918457 -49.36900391 99.03836914 -49.04394531 98.02783203 C-37.66489757 63.0239945 -21.88623946 29.65379835 0 0 Z " fill="#060606" transform="translate(111,124)"/>
<path d="M0 0 C7.17231556 0.95917194 14.08908374 2.48571389 21.0625 4.375 C23.56722357 5.03587304 26.07264046 5.6940693 28.578125 6.35205078 C30.11029027 6.76196677 31.63946446 7.18338432 33.1640625 7.62060547 C52.86835394 13.23393007 74.5852087 11.86927765 94.84057617 10.24438477 C110.54556305 9.02958747 110.54556305 9.02958747 114.8125 11.9375 C117.33469893 15.4685785 117.76405929 17.18983492 117.44921875 21.4296875 C113.40710157 44.55762755 96.74536817 65.79817946 82.3125 83.625 C77.28000761 90.00195727 73.20472332 97.06434353 69 104 C68.51837402 104.79438477 68.03674805 105.58876953 67.54052734 106.40722656 C64.48981619 111.45029978 61.46447277 116.50803379 58.45068359 121.57324219 C57.08942795 123.85040158 55.713265 126.11773363 54.33203125 128.3828125 C44.76485702 144.17717409 37.42449196 160.70964703 31 178 C30.01 178 29.02 178 28 178 C19.7311485 156.52765983 30.82903313 129.02976007 39 109 C39.40863281 107.95585937 39.81726563 106.91171875 40.23828125 105.8359375 C45.35615196 93.06764151 51.27143023 80.4563906 58.390625 68.68359375 C59.99085565 66.01524798 61.47264657 63.30713129 62.9375 60.5625 C65.81628474 55.23055729 68.96587901 50.0863402 72.16796875 44.9453125 C73.80580578 42.31220137 75.41257996 39.66372031 77 37 C75.50726563 37.05220703 75.50726563 37.05220703 73.984375 37.10546875 C69.88641848 36.99699343 66.19374741 36.33554007 62.25 35.3125 C61.55044189 35.13315918 60.85088379 34.95381836 60.13012695 34.76904297 C54.0821432 33.14819166 48.55589814 30.89615967 43 28 C42.11054688 27.54753906 41.22109375 27.09507812 40.3046875 26.62890625 C34.26809901 23.45582768 28.61913651 19.84134433 22.98046875 16.01171875 C20.12069672 14.08146633 17.22921771 12.21777981 14.3125 10.375 C10.79743453 8.14742944 7.2917277 5.90824318 3.8125 3.625 C3.07644531 3.14289063 2.34039062 2.66078125 1.58203125 2.1640625 C1.05996094 1.77992188 0.53789062 1.39578125 0 1 C0 0.67 0 0.34 0 0 Z " fill="#060606" transform="translate(316,366)"/>
<path d="M0 0 C14.37209302 2.18604651 14.37209302 2.18604651 18 4 C19.375 6.625 19.375 6.625 20 9 C19.01 9.99 18.02 10.98 17 12 C14.34917088 10.38304324 11.70525652 8.7551115 9.0625 7.125 C8.30775391 6.66480469 7.55300781 6.20460938 6.77539062 5.73046875 C6.05673828 5.28574219 5.33808594 4.84101563 4.59765625 4.3828125 C3.93258057 3.97434082 3.26750488 3.56586914 2.58227539 3.14501953 C1 2 1 2 0 0 Z " fill="#0E0E0E" transform="translate(316,366)"/>
<path d="M0 0 C0.33 0.66 0.66 1.32 1 2 C0.11303819 4.53459617 -0.83010726 6.96923115 -1.875 9.4375 C-4.0632478 14.67050372 -4.0632478 14.67050372 -6 20 C-7.32 19.67 -8.64 19.34 -10 19 C-10.33 19.99 -10.66 20.98 -11 22 C-11.99 22 -12.98 22 -14 22 C-12.33383155 16.73786039 -9.06931631 12.60840413 -5.875 8.1875 C-5.31167969 7.39923828 -4.74835938 6.61097656 -4.16796875 5.79882812 C-2.78322342 3.86253169 -1.39381373 1.92977359 0 0 Z " fill="#101010" transform="translate(111,124)"/>
<path d="M0 0 C-3.0296652 2.44814179 -6.07549599 4.09452853 -9.625 5.6875 C-11.06746094 6.34298828 -11.06746094 6.34298828 -12.5390625 7.01171875 C-15 8 -15 8 -17 8 C-17.66 6.02 -18.32 4.04 -19 2 C-12.6221448 0.82706111 -6.49678438 -0.29530838 0 0 Z " fill="#151515" transform="translate(359,428)"/>
<path d="M0 0 C0.33 0.66 0.66 1.32 1 2 C0.14453125 4.53125 0.14453125 4.53125 -1.1875 7.5 C-1.61417969 8.4796875 -2.04085937 9.459375 -2.48046875 10.46875 C-4.127042 13.21162781 -5.05906349 13.9155665 -8 15 C-8.99 15.495 -8.99 15.495 -10 16 C-8.55797524 11.84848662 -6.4989562 8.70021555 -3.875 5.1875 C-3.15054688 4.21167969 -2.42609375 3.23585938 -1.6796875 2.23046875 C-0.84824219 1.12638672 -0.84824219 1.12638672 0 0 Z " fill="#252525" transform="translate(111,124)"/>
<path d="M0 0 C0.99 0.33 1.98 0.66 3 1 C2.38125 1.556875 1.7625 2.11375 1.125 2.6875 C-1.10924749 4.84444358 -1.10924749 4.84444358 -2 7.5 C-3.17330499 10.43326248 -4.59954352 11.97461484 -7 14 C-7.66 14 -8.32 14 -9 14 C-7.65070536 10.16336928 -5.92248975 7.34827431 -3.375 4.1875 C-2.42753906 3.00220703 -2.42753906 3.00220703 -1.4609375 1.79296875 C-0.97882813 1.20128906 -0.49671875 0.60960937 0 0 Z " fill="#E4E4E4" transform="translate(417,423)"/>
<path d="M0 0 C1.91789713 0.28346278 3.83429183 0.5771028 5.75 0.875 C7.35101563 1.11863281 7.35101563 1.11863281 8.984375 1.3671875 C11.67708871 1.93223882 13.63572439 2.63422914 16 4 C14.02 4 12.04 4 10 4 C10 4.99 10 5.98 10 7 C8.33073546 6.02526874 6.66464358 5.04510211 5 4.0625 C4.071875 3.51722656 3.14375 2.97195313 2.1875 2.41015625 C1.465625 1.94480469 0.74375 1.47945313 0 1 C0 0.67 0 0.34 0 0 Z " fill="#2B2B2B" transform="translate(316,366)"/>
<path d="M0 0 C0.66 0.99 1.32 1.98 2 3 C1.1646875 3.680625 1.1646875 3.680625 0.3125 4.375 C-3.00489056 8.14068658 -4.89274299 12.4745792 -7 17 C-7.99 16.67 -8.98 16.34 -10 16 C-6.7 10.72 -3.4 5.44 0 0 Z " fill="#D9D9D9" transform="translate(394,454)"/>
<path d="M0 0 C0.66 0.66 1.32 1.32 2 2 C0.02 4.97 -1.96 7.94 -4 11 C-4.66 9.68 -5.32 8.36 -6 7 C-4.02 4.69 -2.04 2.38 0 0 Z " fill="#EEEEEE" transform="translate(104,130)"/>
<path d="M0 0 C1.125 1.6875 1.125 1.6875 2 4 C1.00052181 8.09786059 -0.6376933 9.63266161 -4 12 C-3.52309796 10.37433394 -3.04340334 8.74948689 -2.5625 7.125 C-2.29566406 6.22007812 -2.02882813 5.31515625 -1.75390625 4.3828125 C-1 2 -1 2 0 0 Z " fill="#D6D6D6" transform="translate(110,128)"/>
<path d="M0 0 C6.0546875 -0.1953125 6.0546875 -0.1953125 8 0 C8.66 0.66 9.32 1.32 10 2 C6.7 2.66 3.4 3.32 0 4 C0 2.68 0 1.36 0 0 Z " fill="#E3E3E3" transform="translate(227,466)"/>
<path d="M0 0 C0.99 0.66 1.98 1.32 3 2 C1.68 4.97 0.36 7.94 -1 11 C-1.33 11 -1.66 11 -2 11 C-2.28571429 3.57142857 -2.28571429 3.57142857 0 0 Z " fill="#ECECEC" transform="translate(75,181)"/>
<path d="M0 0 C0.66 0 1.32 0 2 0 C2 0.66 2 1.32 2 2 C2.99 2 3.98 2 5 2 C5.33 1.34 5.66 0.68 6 0 C6 2.31 6 4.62 6 7 C3.5 5.625 3.5 5.625 1 4 C1 3.34 1 2.68 1 2 C0.34 1.67 -0.32 1.34 -1 1 C-0.67 0.67 -0.34 0.34 0 0 Z " fill="#1F1F1F" transform="translate(82,474)"/>
<path d="M0 0 C0.99 0.66 1.98 1.32 3 2 C1.768606 5.69418201 -0.20791354 7.35109746 -3 10 C-2.39009109 6.44219804 -1.4216319 3.3171411 0 0 Z " fill="#EDEDED" transform="translate(110,120)"/>
<path d="M0 0 C0.66 0.33 1.32 0.66 2 1 C0.52307692 6.66153846 0.52307692 6.66153846 -2.125 8.375 C-2.74375 8.58125 -3.3625 8.7875 -4 9 C-2.94124926 5.59687262 -1.99097846 2.98646769 0 0 Z " fill="#1B1B1B" transform="translate(90,157)"/>
<path d="M0 0 C-0.33 0.99 -0.66 1.98 -1 3 C-3.91482778 3.80967438 -5.46113217 4.21845993 -8.3125 3.0625 C-8.869375 2.711875 -9.42625 2.36125 -10 2 C-8.71211992 1.46987262 -7.41953322 0.9511671 -6.125 0.4375 C-5.40570313 0.14746094 -4.68640625 -0.14257812 -3.9453125 -0.44140625 C-2 -1 -2 -1 0 0 Z " fill="#2A2A2A" transform="translate(270,457)"/>
<path d="M0 0 C-1.4375 1.5625 -1.4375 1.5625 -4 3 C-7.05380927 2.96846324 -9.99653222 2.53266629 -13 2 C-13 1.67 -13 1.34 -13 1 C-8.60563789 0.14256349 -4.47427924 -0.08948558 0 0 Z " fill="#4C4C4C" transform="translate(359,428)"/>
<path d="M0 0 C0.66 0 1.32 0 2 0 C1.34 2.97 0.68 5.94 0 9 C-0.33 8.34 -0.66 7.68 -1 7 C-1.66 7 -2.32 7 -3 7 C-1.125 2.25 -1.125 2.25 0 0 Z " fill="#E7E7E7" transform="translate(60,223)"/>
<path d="M0 0 C0.66 0 1.32 0 2 0 C1.43454163 3.95820859 0.19097652 6.6659053 -2 10 C-3 8 -3 8 -2.44140625 6.0546875 C-2.15136719 5.33539063 -1.86132812 4.61609375 -1.5625 3.875 C-1.27503906 3.15054688 -0.98757812 2.42609375 -0.69140625 1.6796875 C-0.46324219 1.12539062 -0.23507813 0.57109375 0 0 Z " fill="#D4D4D4" transform="translate(105,141)"/>
<path d="M0 0 C0.99 0.33 1.98 0.66 3 1 C2.34 3.64 1.68 6.28 1 9 C0.34 8.67 -0.32 8.34 -1 8 C-0.67 5.36 -0.34 2.72 0 0 Z " fill="#0B0B0B" transform="translate(101,143)"/>
<path d="M0 0 C1 3 1 3 0.1875 5.125 C-1 7 -1 7 -3 8 C-2.25 2.25 -2.25 2.25 0 0 Z " fill="#171717" transform="translate(67,211)"/>
<path d="M0 0 C1.65 0.33 3.3 0.66 5 1 C4.67 1.66 4.34 2.32 4 3 C3.34 2.67 2.68 2.34 2 2 C1.67 2.99 1.34 3.98 1 5 C0.01 5 -0.98 5 -2 5 C-1.34 3.35 -0.68 1.7 0 0 Z " fill="#202020" transform="translate(99,141)"/>
</svg>
